<?xml version="1.0" encoding="UTF-8" standalone="no"?>
<!-- Created with Inkscape (http://www.inkscape.org/) -->

<svg
   xmlns:dc="http://purl.org/dc/elements/1.1/"
   xmlns:cc="http://creativecommons.org/ns#"
   xmlns:rdf="http://www.w3.org/1999/02/22-rdf-syntax-ns#"
   xmlns:svg="http://www.w3.org/2000/svg"
   xmlns="http://www.w3.org/2000/svg"
   xmlns:sodipodi="http://sodipodi.sourceforge.net/DTD/sodipodi-0.dtd"
   xmlns:inkscape="http://www.inkscape.org/namespaces/inkscape"
   width="1280"
   height="800"
   viewBox="0 0 1280 800.00001"
   id="svg2"
   version="1.1"
   inkscape:version="0.91 r13725"
   sodipodi:docname="drawing-1.svg">
  <defs
     id="defs4" />
  <sodipodi:namedview
     id="base"
     pagecolor="#ffffff"
     bordercolor="#666666"
     borderopacity="1.0"
     inkscape:pageopacity="0.0"
     inkscape:pageshadow="2"
     inkscape:zoom="0.35"
     inkscape:cx="400.1919"
     inkscape:cy="517.14286"
     inkscape:document-units="px"
     inkscape:current-layer="layer1"
     showgrid="false"
     units="px"
     inkscape:window-width="1280"
     inkscape:window-height="657"
     inkscape:window-x="-8"
     inkscape:window-y="-8"
     inkscape:window-maximized="1" />
  <metadata
     id="metadata7">
    <rdf:RDF>
      <cc:Work
         rdf:about="">
        <dc:format>image/svg+xml</dc:format>
        <dc:type
           rdf:resource="http://purl.org/dc/dcmitype/StillImage" />
        <dc:title></dc:title>
      </cc:Work>
    </rdf:RDF>
  </metadata>
  <g
     inkscape:label="Layer 1"
     inkscape:groupmode="layer"
     id="layer1"
     transform="translate(0,-252.36216)">
    <path
       style="opacity:0.8;fill:none;fill-opacity:1;fill-rule:evenodd;stroke:#8ee0fe;stroke-width:24;stroke-linecap:butt;stroke-linejoin:miter;stroke-miterlimit:4;stroke-dasharray:none;stroke-opacity:1"
       d="M 74.285714,349.50502 C 86.906563,357.26319 129.90476,469.95671 162.85715,520.93359 253.74998,661.5435 340,463.79073 340,463.79073 c 0,0 60,-77.14285 171.42858,37.14286 111.42857,114.28572 -33.00663,160.25341 71.42857,225.71429 82.69773,51.83565 194.1141,-150.85349 302.85714,-17.14286 73.53697,90.42117 171.42851,-162.85715 228.57141,-114.28572 57.1429,48.57143 11.4286,62.85715 82.8572,148.57144 71.4286,85.71428 228.5714,91.42857 228.5714,91.42857"
       id="path4136"
       inkscape:connector-curvature="0"
       sodipodi:nodetypes="cscsssssc" />
    <path
       style="opacity:0.8;fill:none;fill-rule:evenodd;stroke:#ffd168;stroke-width:24;stroke-linecap:butt;stroke-linejoin:miter;stroke-miterlimit:4;stroke-dasharray:none;stroke-opacity:1"
       d="m 148.57143,315.2193 c 15.73673,0 99.22365,140 20,260 -66.78604,101.16077 165.71428,114.28572 228.57143,82.85715 C 460,626.64787 622.85714,512.36216 742.85714,589.50501 c 120,77.14286 151.42857,-57.14285 222.85714,-17.14285 71.42862,40 101.76732,134.31634 134.28582,205.71428 53.277,116.97585 270.7004,168.2899 328.5713,134.28572"
       id="path4138"
       inkscape:connector-curvature="0"
       sodipodi:nodetypes="csssssc" />
    <path
       style="opacity:0.8;fill:none;fill-rule:evenodd;stroke:#ff5f6d;stroke-width:24;stroke-linecap:butt;stroke-linejoin:miter;stroke-miterlimit:4;stroke-dasharray:none;stroke-opacity:1"
       d="m 1514.2857,860.93359 c 9.0109,54.0657 -259.1889,-478.17037 -408.5714,-197.14286 C 1022.2453,820.81755 819.49689,840.92837 828.57143,772.36216 836.99684,708.70069 751.9113,542.35541 674.28571,489.50502 606.13586,443.10607 555.48475,505.98654 408.57143,546.64788 226.34918,597.0817 240,749.50502 162.85714,723.79073 85.714286,698.07645 137.14286,498.07645 25.714286,492.36216"
       id="path4144"
       inkscape:connector-curvature="0"
       sodipodi:nodetypes="csssssc" />
    <path
       style="opacity:0.8;fill:none;fill-rule:evenodd;stroke:#fc87ff;stroke-width:24;stroke-linecap:butt;stroke-linejoin:miter;stroke-miterlimit:4;stroke-dasharray:none;stroke-opacity:1"
       d="m 228.57143,372.36216 c 310.94436,5.75674 72.51809,366.71514 242.85715,354.28571 154.88767,-11.30196 179.36919,-328.97582 345.71428,-211.42857 102.79089,72.63687 121.14603,338.99921 191.42854,322.85715 85.7832,-19.70218 205.2714,-171.29358 257.1429,-122.85715 101.8808,95.13406 319.2722,55.31486 294.2857,37.14285"
       id="path4146"
       inkscape:connector-curvature="0"
       sodipodi:nodetypes="cssssc" />
  </g>
</svg>
