<?xml version="1.0" encoding="utf-8"?>
<!-- Generator: Adobe Illustrator 16.0.0, SVG Export Plug-In . SVG Version: 6.00 Build 0)  -->
<!DOCTYPE svg PUBLIC "-//W3C//DTD SVG 1.1//EN" "http://www.w3.org/Graphics/SVG/1.1/DTD/svg11.dtd">
<svg version="1.1" id="Layer_1" xmlns="http://www.w3.org/2000/svg" xmlns:xlink="http://www.w3.org/1999/xlink" x="0px" y="0px"
	 width="493px" height="581px" viewBox="0 0 493 581" enable-background="new 0 0 493 581" xml:space="preserve">
<rect fill="#FFFFFF" width="493" height="581"/>
<g>
	<path d="M58,0v581h435V0H58z M480,568H233.746C131.074,547.53,87.105,453.518,71,405.062V13h409V568z"/>
	<path d="M275.674,502.337c88.102,0,159.557-97.54,159.557-217.939c0-62.96-19.493-119.56-50.723-159.36
		c0.68,1.63,63.93,152.381,7.47,232.07l-0.55,0.17c-6.01,3.471-7.811,0-7.811,0l-93.06-282.96c0.69-0.62,1.94-1.08,4.21-0.6
		c0,0,1.25,0.94,2.25-2.5c0,0,0.47-1.36-0.36-3.09c-21.609-5.98-34.12-1.23-34.12-1.23l-95.39,290.33c0,0-1.75,3.45-7.68,0.069
		c-27.17-38.22-26.82-92.869-18.89-139.56c0-0.05,0.01-0.09,0.02-0.14c0.25-1.461,0.496-2.9,0.526-4.34
		c0.01-0.08-0.124-0.16-0.124-0.24v-0.01c1-1.24,0.773-2.48,0.974-3.711c0-0.049,0.077-0.09,0.088-0.14
		c0.3-1.54,0.713-3.09,1.023-4.61c0.011-0.029,0.027-0.049,0.037-0.08c0.34-1.709,0.698-3.399,1.058-5.069
		c0.009-0.03-0.12-0.06-0.11-0.091c0.341-1.59,0.931-3.159,0.931-4.719v-0.09c0-0.051,0.184-0.091,0.204-0.141
		c0.91-1.71,0.877-3.43,1.287-5.1c0-0.021,0.043-0.03,0.043-0.051c0.4-1.66,0.997-3.3,1.406-4.92c0.011-0.039-0.105-0.09-0.095-0.13
		c0.351-1.43,0.154-2.83,1.154-4.229v-0.01c0-1.701,1-3.381,1-5.031v-0.01c1-1.959,1-3.869,2-5.74v-0.01
		c0-0.01-0.136-0.01-0.136-0.02c0.009-0.02,0.077-0.051,0.087-0.07c0.479-1.689,1.149-3.33,1.199-4.939
		c0-0.021-0.15-0.03-0.15-0.051v-0.01c0-0.029,0-0.07,0-0.1v-0.01c7-23.141,13.583-38.371,13.794-38.891
		c-12.05,15.35-22.232,33.2-30.343,52.961c-0.25,0.6-0.447,1.199-0.657,1.809c-0.029,0.07-0.044,0.15-0.074,0.221
		c-0.43,1.2-0.901,2.391-1.351,3.609c0,0-0.16,0.011-0.18,0.011c-0.029,0-0.189,0.01-0.189,0.01v0.011
		c0,0.029,0.154,0.049,0.164,0.069s0.086,0.03,0.086,0.05c0.01,0.02-0.089,0.03-0.1,0.051c-0.81,2.1-2.15,4.209-2.15,6.359v0.01
		c-1,1.801-2,3.61-2,5.44v0.01c-1,1.53-1,3.07-2,4.64v0.01c0,0.091,0.134,0.191,0.124,0.281c-0.089,1.56-0.997,3.14-1.047,4.729
		c-0.01,0.06-0.077,0.11-0.077,0.17v0.011c-1,1.779-1,3.569-2,5.389v0.011c0,0.04,0.313,0.069,0.313,0.11
		c-0.43,1.619-0.713,3.25-1.112,4.89c0,0.021-0.03,0.03-0.03,0.05c-0.42,1.7-1.171,3.42-1.171,5.13c0,0.011,0,0.011,0,0.021v0.029
		c0,0.041,0.104,0.07,0.094,0.11c-0.26,1.13-0.717,2.28-0.917,3.42c-0.061,0.38-0.177,0.771-0.177,1.149v0.011
		c0,0.06,0,0.101,0,0.16v0.01c0,1.25-1,2.511-1,3.78v0.14c0,1.49-0.66,3-0.92,4.511c0,0.01-0.08,0.02-0.08,0.029s0,0.01,0,0.02
		c0,0.07,0.104,0.141,0.094,0.211c-2.97,15.979-4.003,32.629-4.003,49.76C116.091,404.838,187.596,502.337,275.674,502.337z
		 M263.957,79.007c0,0,1.311-4.86,11.311-5.23c5.88-0.25,8.12,5.12,8.12,5.12s30.37,101.76,54.7,184.601l-62.34,31.17l-68.471-31.23
		C232.397,181.707,263.957,79.007,263.957,79.007z M176.928,362.038c0.96-3.07,14.029-45.536,29.76-96.706l69.1,31.538
		l62.881-31.432c15.83,53.931,28.97,99.315,29.239,102.595c0.471,5.67-0.95,10.905-2.35,14.586
		c-21.021,14.02-50.06,22.381-89.57,22.381h-0.72c-43.311,0-74.03-10.071-95.39-26.582
		C177.938,374.379,175.248,367.418,176.928,362.038z"/>
	<path d="M17,570.466l22,10.521v-3.604l-6-2.83v-8.371l6-2.693v-5.404L17,568.18V570.466z M31,567.075v6.493l-6.963-3.299
		L31,567.075z"/>
	<polygon points="37,532 17,532 17,537 39,537 39,521 37,521 	"/>
	<path d="M37.275,482.936c-0.545-0.712-1.183-1.262-1.915-1.65c-0.731-0.388-1.521-0.582-2.369-0.582
		c-0.615,0-1.196,0.108-1.741,0.325s-1.039,0.52-1.483,0.908c-0.444,0.389-0.835,0.848-1.173,1.377
		c-0.338,0.53-0.608,1.112-0.81,1.749c-0.353-0.616-0.706-1.136-1.06-1.56c-0.353-0.424-0.721-0.762-1.105-1.015
		c-0.383-0.252-0.79-0.434-1.219-0.545c-0.429-0.11-0.9-0.166-1.415-0.166c-0.827,0-1.579,0.207-2.255,0.621
		c-0.676,0.413-1.256,0.991-1.741,1.732c-0.484,0.742-1.096,1.63-1.358,2.664C17.37,487.83,17,488.967,17,490.209V499h22v-10.154
		c0-1.221-0.141-2.333-0.454-3.337C38.234,484.505,37.82,483.646,37.275,482.936z M27,494h-8v-1.809
		c0-0.878,0.338-1.635,0.524-2.271c0.188-0.636,0.569-1.16,0.902-1.574s0.795-0.719,1.265-0.916
		c0.469-0.196,1.012-0.295,1.567-0.295c0.515,0,1.001,0.081,1.43,0.242c0.43,0.161,0.808,0.394,1.121,0.696
		c0.313,0.303,0.654,0.674,0.83,1.112c0.177,0.439,0.361,0.937,0.361,1.491V494z M37,494h-8v-2.565c0-0.948,0.061-1.753,0.278-2.414
		c0.217-0.661,0.491-1.193,0.869-1.597c0.379-0.404,0.813-0.697,1.328-0.879s1.069-0.271,1.674-0.271
		c0.535,0,1.024,0.098,1.473,0.295c0.449,0.196,0.833,0.499,1.156,0.908c0.323,0.408,0.666,0.926,0.853,1.551
		c0.188,0.626,0.369,1.368,0.369,2.226V494z"/>
	<polygon points="37,453 28,453 28,444 26,444 26,453 19,453 19,442 17,442 17,458 39,458 39,442 37,442 	"/>
	<path d="M27.822,406.016c-0.358-0.605-0.767-1.125-1.226-1.559c-0.459-0.434-0.964-0.77-1.514-1.007
		c-0.55-0.237-1.128-0.356-1.733-0.356c-0.848,0-1.629,0.175-2.346,0.522c-0.716,0.349-1.337,0.87-1.862,1.567
		c-0.524,0.695-1.171,1.568-1.464,2.618c-0.292,1.05-0.677,2.271-0.677,3.663V420h22v-6H29v-0.658l10-7.25v-5.737l-10.308,7.675
		C28.46,407.293,28.181,406.621,27.822,406.016z M27,414h-7v-1.869c0-0.515-0.121-0.986,0.07-1.415
		c0.192-0.429,0.353-0.8,0.701-1.112c0.348-0.312,0.705-0.559,1.179-0.734c0.475-0.177,0.967-0.266,1.532-0.266
		c0.616,0,1.154,0.117,1.645,0.349c0.489,0.232,0.896,0.55,1.234,0.954c0.338,0.403,0.391,0.88,0.573,1.43
		c0.182,0.551,0.066,1.148,0.066,1.794V414z"/>
	<polygon points="19,362 17,362 17,383 19,383 19,375 39,375 39,370 19,370 	"/>
	<path d="M38.07,324.941c-0.47-0.908-1.04-1.736-1.711-2.482c-0.671-0.747-1.43-1.383-2.278-1.908
		c-0.848-0.523-1.776-0.931-2.785-1.218c-1.009-0.288-2.083-0.432-3.224-0.432c-1.08,0-2.104,0.144-3.073,0.432
		c-0.969,0.287-1.862,0.694-2.679,1.218c-0.817,0.525-1.554,1.161-2.21,1.908c-0.656,0.746-1.213,1.574-1.673,2.482
		c-0.459,0.908-0.812,1.892-1.06,2.951c-0.247,1.06-0.371,2.17-0.371,3.33s0.124,2.271,0.371,3.33
		c0.248,1.06,0.598,2.043,1.052,2.951s1.012,1.736,1.672,2.482c0.661,0.748,1.4,1.383,2.218,1.908
		c0.817,0.524,1.713,0.931,2.687,1.218c0.974,0.288,2.006,0.432,3.096,0.432c1.11,0,2.162-0.144,3.156-0.432
		c0.994-0.287,1.915-0.693,2.762-1.218c0.848-0.525,1.61-1.16,2.286-1.908c0.676-0.746,1.251-1.574,1.726-2.482
		c0.475-0.908,0.84-1.892,1.098-2.951c0.257-1.06,0.386-2.17,0.386-3.33s-0.124-2.271-0.371-3.33
		C38.897,326.833,38.539,325.85,38.07,324.941z M36.965,334.023c-0.479,0.807-1.145,1.48-1.998,2.021
		c-0.853,0.54-1.864,0.948-3.035,1.226c-1.17,0.277-2.447,0.416-3.83,0.416c-1.362,0-2.611-0.139-3.746-0.416
		c-1.136-0.277-2.112-0.686-2.929-1.226s-1.453-1.214-1.907-2.021c-0.454-0.808-0.681-1.741-0.681-2.801
		c0-1.049,0.227-1.976,0.681-2.777c0.454-0.803,1.09-1.477,1.907-2.021s1.793-0.955,2.929-1.233
		c1.135-0.277,2.384-0.416,3.746-0.416c1.383,0,2.659,0.139,3.83,0.416c1.171,0.278,2.182,0.688,3.035,1.233
		c0.853,0.545,1.519,1.219,1.998,2.021c0.479,0.802,0.719,1.729,0.719,2.777C37.684,332.282,37.444,333.216,36.965,334.023z"/>
	<path d="M29.43,258.488c-0.252-0.928-0.727-1.753-1.231-2.475c-0.504-0.722-1.183-1.305-1.94-1.748
		c-0.757-0.444-1.668-0.666-2.688-0.666c-1.009,0-1.904,0.225-2.661,0.673c-0.757,0.449-1.393,1.062-1.898,1.839
		c-0.504,0.777-1.126,1.693-1.384,2.748C17.37,259.914,17,261.047,17,262.258V270h22v-6h-9v-2.666
		C30,260.365,29.682,259.417,29.43,258.488z M28,264h-8v-1.122c0-0.515-0.126-0.999,0.055-1.453s0.335-0.851,0.678-1.188
		c0.344-0.338,0.713-0.603,1.217-0.795c0.505-0.191,1.053-0.287,1.699-0.287c0.535,0,1.033,0.073,1.522,0.22
		c0.49,0.146,0.915,0.368,1.288,0.666c0.374,0.298,0.833,0.671,1.05,1.12s0.49,0.971,0.49,1.566V264z"/>
	<path d="M39,218.723v-5.403l-22,10.096v2.286l22,10.52v-3.603l-6-2.83v-8.371L39,218.723z M31,228.804l-6.963-3.3L31,222.311
		V228.804z"/>
	<path d="M37.729,176.051c-0.545-0.837-1.17-1.592-1.877-2.263c-0.706-0.671-1.443-1.243-2.21-1.718l-1.62,2.21
		c0.646,0.454,1.259,0.929,1.839,1.423c0.58,0.494,1.09,1.027,1.528,1.597c0.439,0.57,0.79,1.181,1.052,1.832
		c0.263,0.65,0.394,1.354,0.394,2.111c0,0.979-0.187,1.925-0.56,2.838c-0.373,0.913-0.923,1.721-1.65,2.422
		c-0.727,0.702-1.625,1.265-2.694,1.688c-1.069,0.424-2.301,0.635-3.693,0.635c-1.402,0-2.639-0.199-3.708-0.598
		c-1.069-0.398-1.968-0.938-2.694-1.619c-0.727-0.682-1.276-1.471-1.65-2.369c-0.373-0.898-0.56-1.842-0.56-2.83
		c0-0.727,0.126-1.424,0.378-2.09c0.252-0.666,0.593-1.301,1.022-1.906c0.429-0.605,0.928-1.174,1.498-1.703
		c0.57-0.53,1.179-1.021,1.824-1.477l-1.559-2.24c-0.848,0.505-1.629,1.088-2.346,1.749c-0.716,0.661-1.334,1.413-1.854,2.255
		c-0.52,0.843-0.923,1.781-1.211,2.815c-0.287,1.034-0.431,2.173-0.431,3.413c0,1.231,0.126,2.397,0.378,3.497
		c0.252,1.101,0.616,2.111,1.09,3.035c0.475,0.923,1.047,1.753,1.718,2.489c0.671,0.737,1.426,1.36,2.263,1.87
		c0.838,0.51,1.749,0.9,2.732,1.173c0.984,0.272,2.021,0.408,3.111,0.408c1.695,0,3.234-0.317,4.617-0.953
		c1.383-0.636,2.568-1.521,3.557-2.656c0.989-1.136,1.753-2.482,2.293-4.042c0.54-1.559,0.81-3.267,0.81-5.124
		c0-1.1-0.162-2.144-0.484-3.133C38.708,177.803,38.274,176.889,37.729,176.051z"/>
	<polygon points="17,144 17,150 39,150 39,144 29,144 29,136 39,136 39,130 17,130 17,136 27,136 27,144 	"/>
	<polygon points="17,91 17,107 39,107 39,91 37,91 37,102 28,102 28,93 26,93 26,102 19,102 19,91 	"/>
	<path d="M37.729,50.564c-0.545-0.838-1.17-1.592-1.877-2.263c-0.706-0.671-1.443-1.244-2.21-1.718l-1.62,2.21
		c0.646,0.454,1.259,0.929,1.839,1.423c0.58,0.495,1.09,1.027,1.528,1.597c0.439,0.57,0.79,1.181,1.052,1.832
		c0.263,0.651,0.394,1.354,0.394,2.111c0,0.979-0.187,1.925-0.56,2.838c-0.373,0.914-0.923,1.721-1.65,2.422
		c-0.727,0.702-1.625,1.264-2.694,1.688c-1.069,0.424-2.301,0.636-3.693,0.636c-1.402,0-2.639-0.199-3.708-0.598
		c-1.069-0.398-1.968-0.938-2.694-1.62s-1.276-1.471-1.65-2.369c-0.373-0.897-0.56-1.841-0.56-2.83c0-0.727,0.126-1.423,0.378-2.089
		c0.252-0.666,0.593-1.302,1.022-1.907c0.429-0.605,0.928-1.173,1.498-1.703c0.57-0.53,1.179-1.021,1.824-1.476l-1.559-2.24
		c-0.848,0.504-1.629,1.087-2.346,1.748c-0.716,0.661-1.334,1.413-1.854,2.255c-0.52,0.843-0.923,1.781-1.211,2.815
		c-0.287,1.035-0.431,2.172-0.431,3.414c0,1.231,0.126,2.396,0.378,3.496c0.252,1.101,0.616,2.112,1.09,3.035
		c0.475,0.923,1.047,1.753,1.718,2.49c0.671,0.736,1.426,1.359,2.263,1.869c0.838,0.51,1.749,0.9,2.732,1.173
		c0.984,0.272,2.021,0.409,3.111,0.409c1.695,0,3.234-0.318,4.617-0.954c1.383-0.636,2.568-1.521,3.557-2.656
		c0.989-1.135,1.753-2.482,2.293-4.042c0.54-1.559,0.81-3.267,0.81-5.124c0-1.1-0.162-2.145-0.484-3.134
		C38.708,52.315,38.274,51.402,37.729,50.564z"/>
	<path d="M38.07,6.591c-0.47-0.908-1.04-1.735-1.711-2.482c-0.671-0.747-1.43-1.382-2.278-1.907
		c-0.848-0.524-1.776-0.931-2.785-1.219c-1.009-0.287-2.083-0.431-3.224-0.431c-1.08,0-2.104,0.144-3.073,0.431
		c-0.969,0.288-1.862,0.694-2.679,1.219c-0.817,0.525-1.554,1.161-2.21,1.907c-0.656,0.747-1.213,1.574-1.673,2.482
		c-0.459,0.908-0.812,1.892-1.06,2.952c-0.247,1.06-0.371,2.169-0.371,3.33s0.124,2.271,0.371,3.33
		c0.248,1.06,0.598,2.043,1.052,2.952s1.012,1.736,1.672,2.482c0.661,0.747,1.4,1.383,2.218,1.907
		c0.817,0.525,1.713,0.931,2.687,1.219c0.974,0.287,2.006,0.431,3.096,0.431c1.11,0,2.162-0.144,3.156-0.431
		c0.994-0.288,1.915-0.694,2.762-1.219c0.848-0.524,1.61-1.16,2.286-1.907c0.676-0.747,1.251-1.574,1.726-2.482
		c0.475-0.908,0.84-1.892,1.098-2.952c0.257-1.06,0.386-2.169,0.386-3.33s-0.124-2.271-0.371-3.33
		C38.897,8.483,38.539,7.499,38.07,6.591z M36.965,15.673c-0.479,0.808-1.145,1.481-1.998,2.021
		c-0.853,0.54-1.864,0.949-3.035,1.227c-1.17,0.277-2.447,0.416-3.83,0.416c-1.362,0-2.611-0.139-3.746-0.416
		c-1.136-0.277-2.112-0.687-2.929-1.227c-0.817-0.54-1.453-1.213-1.907-2.021c-0.454-0.807-0.681-1.741-0.681-2.8
		c0-1.049,0.227-1.975,0.681-2.778c0.454-0.802,1.09-1.476,1.907-2.021s1.793-0.956,2.929-1.233
		c1.135-0.277,2.384-0.417,3.746-0.417c1.383,0,2.659,0.139,3.83,0.417c1.171,0.277,2.182,0.688,3.035,1.233
		c0.853,0.545,1.519,1.219,1.998,2.021c0.479,0.803,0.719,1.729,0.719,2.778C37.684,13.932,37.444,14.866,36.965,15.673z"/>
</g>
</svg>
