<?xml version="1.0" encoding="utf-8"?>
<!-- Generator: Adobe Illustrator 16.0.0, SVG Export Plug-In . SVG Version: 6.00 Build 0)  -->
<!DOCTYPE svg PUBLIC "-//W3C//DTD SVG 1.1//EN" "http://www.w3.org/Graphics/SVG/1.1/DTD/svg11.dtd">
<svg version="1.1" id="Layer_1" xmlns="http://www.w3.org/2000/svg" xmlns:xlink="http://www.w3.org/1999/xlink" x="0px" y="0px"
	 width="185.333px" height="175.773px" viewBox="0 0 185.333 175.773" enable-background="new 0 0 185.333 175.773"
	 xml:space="preserve">
<g>
	<defs>
		<rect id="SVGID_1_" x="248.868" y="-483.834" width="361.334" height="43.015"/>
	</defs>
	<clipPath id="SVGID_2_">
		<use xlink:href="#SVGID_1_"  overflow="visible"/>
	</clipPath>
	<g clip-path="url(#SVGID_2_)">
		<defs>
			<rect id="SVGID_3_" x="-182.799" y="-573.775" width="841.891" height="595.275"/>
		</defs>
		<clipPath id="SVGID_4_">
			<use xlink:href="#SVGID_3_"  overflow="visible"/>
		</clipPath>
	</g>
</g>
<g>
	<g>
		<path d="M84.625,132.419c-0.327,0-0.582-0.051-0.765-0.153c-0.184-0.101-0.347-0.376-0.489-0.826
			c-0.144-0.448-0.214-1.08-0.214-1.896V47.296c0-1.183,0.123-1.958,0.367-2.326s0.612-0.551,1.102-0.551h6.854
			c0.53,0,0.918,0.174,1.163,0.521c0.245,0.347,0.367,1.132,0.367,2.356v82.248c0,1.224-0.123,2.01-0.367,2.355
			c-0.245,0.348-0.633,0.521-1.163,0.521H84.625z"/>
		<path d="M108.185,132.419c-1.021,0-1.53-1.061-1.53-3.183V47.541c0-1.224,0.123-2.05,0.367-2.479
			c0.245-0.428,0.632-0.643,1.163-0.643h6.793c0.734,0,1.366,0.673,1.896,2.02l23.928,61.38c0.082,0.163,0.184,0.061,0.307-0.307
			c0.081-0.162,0.122-0.325,0.122-0.489V47.541c0-1.224,0.132-2.05,0.397-2.479s0.663-0.643,1.193-0.643h5.569
			c0.979,0,1.469,1.041,1.469,3.121v82.063c0,0.817-0.072,1.438-0.215,1.867c-0.143,0.428-0.306,0.694-0.489,0.795
			c-0.184,0.103-0.438,0.153-0.765,0.153h-4.957c-0.327,0-0.734-0.265-1.224-0.796c-0.49-0.529-0.857-1.121-1.102-1.774
			L115.834,66.45c-0.082-0.245-0.204-0.163-0.367,0.245c-0.041,0.123-0.061,0.245-0.061,0.367v62.175
			c0,1.225-0.134,2.061-0.398,2.51c-0.266,0.449-0.664,0.673-1.193,0.673H108.185z"/>
	</g>
	<g>
		<path d="M58.617,131.548c-1.061,0-1.591-1.122-1.591-3.365V89.262l-18.297,38.982c-0.571,1.265-1.071,2.133-1.5,2.601
			c-0.428,0.469-0.908,0.704-1.438,0.704h-6.854c-0.53,0-0.795-0.387-0.795-1.163c0-0.652,0.245-1.487,0.734-2.508l18.114-38.616
			c0.164-0.367,0.245-0.834,0.245-1.408c0-0.163-0.102-0.754-0.306-1.774L29.854,46.914c-0.326-0.693-0.49-1.408-0.49-2.142
			c0-0.816,0.347-1.224,1.041-1.224h7.344c0.856,0,1.734,1.102,2.631,3.306l16.646,39.837V47.098c0-2.364,0.53-3.549,1.591-3.549
			h6.792c0.979,0,1.469,1.185,1.469,3.549V128c0,2.365-0.489,3.548-1.469,3.548H58.617z"/>
	</g>
	<path fill="#C22026" d="M150.969,31.489c0-4.501-3.652-8.152-8.153-8.152l0,0c-4.501,0-8.152,3.65-8.152,8.152l0,0
		c0,4.501,3.651,8.153,8.152,8.153l0,0C147.317,39.642,150.969,35.99,150.969,31.489L150.969,31.489z"/>
	<path fill="#21B99D" d="M93.634,145.215c0-4.502-3.648-8.153-8.149-8.153l0,0c-4.504,0-8.153,3.651-8.153,8.153l0,0
		c0,4.502,3.648,8.152,8.153,8.152l0,0C89.986,153.368,93.634,149.717,93.634,145.215L93.634,145.215z"/>
	<path fill="#72CCD9" d="M73.275,31.092c0-4.5-3.65-8.152-8.151-8.152l0,0c-4.502,0-8.152,3.652-8.152,8.152l0,0
		c0,4.502,3.65,8.152,8.152,8.152l0,0C69.625,39.244,73.275,35.594,73.275,31.092L73.275,31.092z"/>
</g>
</svg>
